PathFileType	4	(X/Y/Z)	AB10\squats_1.trc
DataRate	CameraRate	NumFrames	NumMarkers	Units	OrigDataRate	OrigDataStartFrame	OrigNumFrames
200.000000	200.000000	5	35	mm	200.000000	257	343
Frame#	Time	C7			LSHO			STRN			LASI			RASI			LPSI			RPSI			LGTR			RGTR			LTHL			LTHR			LKNE			LMKNE			LSHC			LSHL			LSHR			LANK			LMANK			LMT1			LMT5			LCAL			RTHC			RTHL			RTHR			RKNE			RMKNE			RSHC			RSHL			RSHR			RANK			RMANK			RMT1			RMT5			RCAL			LTHC			
		X1	Y1	Z1	X2	Y2	Z2	X3	Y3	Z3	X4	Y4	Z4	X5	Y5	Z5	X6	Y6	Z6	X7	Y7	Z7	X8	Y8	Z8	X9	Y9	Z9	X10	Y10	Z10	X11	Y11	Z11	X12	Y12	Z12	X13	Y13	Z13	X14	Y14	Z14	X15	Y15	Z15	X16	Y16	Z16	X17	Y17	Z17	X18	Y18	Z18	X19	Y19	Z19	X20	Y20	Z20	X21	Y21	Z21	X22	Y22	Z22	X23	Y23	Z23	X24	Y24	Z24	X25	Y25	Z25	X26	Y26	Z26	X27	Y27	Z27	X28	Y28	Z28	X29	Y29	Z29	X30	Y30	Z30	X31	Y31	Z31	X32	Y32	Z32	X33	Y33	Z33	X34	Y34	Z34	X35	Y35	Z35	

258	25.91	-3515.22416182464	1233.907575824922	2472.762883256204	-3545.478621862686	1187.661881276159	2627.846494174503	-3589.056330213925	1068.898572928435	2482.839472060827	-3394.810103811165	763.3488848673002	2606.062822122326	-3405.549151754453	750.2767179471196	2336.030048928159	-3221.18545311756	838.6097339359036	2517.542714615944	-3234.665044920114	842.8330183196074	2424.989131625027	-3330.972708720522	748.6568399048114	2680.429752867225	-3324.272791300718	732.8505101887469	2258.461645890224	-3565.059046033613	634.5048979958125	2640.822493531899	-3460.688234038501	489.329231237346	2658.806541860909	-3623.555480521038	452.2253288044382	2704.250149374602	-3637.736783017228	432.9275118336097	2576.999420620668	-3529.822779355027	288.4566522785382	2718.713056759512	-3541.386720172162	172.8618214475244	2669.820748493539	-3449.139435225633	212.7269454647114	2650.749727599065	-3427.581107150771	99.14264911009124	2701.537709892021	-3457.799619134014	87.65166348837715	2615.153665811675	-3572.886260583753	61.88080718031854	2676.102660926217	-3516.822442498102	51.99295241186914	2762.462190595859	-3358.972048980834	73.71394249335265	2648.354891405019	-3493.936862871441	454.3044337038018	2337.619980498081	-3442.033560668507	596.1242940934707	2254.142034366272	-3576.808886201449	620.3409668944496	2339.420322364093	-3647.653158434883	419.3503505794823	2257.754813505305	-3659.912207566139	405.3946958554816	2378.404776469212	-3550.361757559085	176.4977393396384	2315.087044832816	-3470.789370557837	246.9958027541288	2298.017049167934	-3549.583177355525	284.738967712484	2246.201621985806	-3423.28331380831	108.7583223944188	2268.143371077337	-3451.538603200349	100.2074389442192	2352.670736422289	-3569.844013662204	59.44311502104373	2291.295445495978	-3517.586431041413	51.41913233808267	2208.717397954785	-3352.962571442257	78.90230478329345	2320.316112360849	-3437.63732621349	625.7880623934886	2706.036279298765	
259	25.915	-3514.366697459583	1238.540511124749	2472.703892630066	-3544.587419229255	1192.501710700834	2627.861308811575	-3588.537686986393	1073.79474614058	2482.913043577677	-3395.370651407409	767.2386883589247	2606.175239630035	-3406.160578061577	754.1376892694553	2336.087261741944	-3221.693664322894	842.4142845409549	2517.582763971443	-3235.140899746893	846.6002789340386	2425.005418484767	-3331.714503158015	752.165441273086	2680.478808636011	-3324.924765409412	736.2162312096095	2258.735452858199	-3565.415502054585	636.1316592598779	2640.893871851669	-3459.898266669076	491.7590449640417	2658.649181119521	-3622.48587635519	453.1723356916023	2704.023750253846	-3636.639979794405	433.8569009828897	2576.793129657611	-3529.114633070078	288.8489627357916	2718.649523919942	-3541.044978828878	173.2189113568484	2669.803069399649	-3448.685952000017	212.7933339798799	2650.746028685669	-3427.515301390494	99.13374521827144	2701.58568627814	-3457.742049422439	87.73259067375901	2615.223766391641	-3572.85702573547	61.88088278895332	2676.128975241781	-3516.781257561854	51.93601550537694	2762.464357261543	-3358.917521197466	73.69358183552829	2648.402646995471	-3493.020860705502	456.5573428267916	2338.052983022877	-3442.184175710694	598.7388421792089	2254.379350512434	-3577.179332297047	622.0414944438189	2339.546752152373	-3646.567372744501	420.3573915396949	2258.282771103527	-3658.799413922835	406.2269314646453	2378.869399966411	-3550.002391568521	176.902069306001	2315.215423453518	-3470.205168976932	247.1776295663574	2298.230789769432	-3548.876644135955	285.2494719617387	2246.469813415588	-3423.154888001315	108.7569030431073	2268.168903161731	-3451.455960217536	100.2770436227126	2352.68058677517	-3569.80466767384	59.46421304367219	2291.3029368322	-3517.580871359403	51.42801786199579	2208.718799827096	-3352.913916040109	78.84067985955282	2320.300682829583	-3437.893696750846	628.3946769745351	2706.037626113923	
260	25.92	-3513.502731938539	1243.202622563402	2472.652433650499	-3543.690068715043	1197.366220789741	2627.879492234756	-3588.011136303078	1078.722801892419	2482.98199025444	-3395.946959310206	771.1471653942792	2606.299882001009	-3406.7848453972	758.031733715821	2336.151410762159	-3222.212391547048	846.2356403500025	2517.632952933187	-3235.625592070343	850.3898136540546	2425.031548466919	-3332.46488376108	755.6877819209514	2680.532054155201	-3325.584563775526	739.6125775979965	2259.022025346433	-3565.76027126076	637.7776379011403	2640.979062172946	-3459.088983824871	494.2144620803645	2658.513606629754	-3621.383509500678	454.1387064201749	2703.817610754421	-3635.517381234267	434.805459072669	2576.604260382845	-3528.381511308851	289.249046622772	2718.598112199465	-3540.691902520828	173.5831074521425	2669.794432593778	-3448.219123813279	212.8622153991646	2650.750098412498	-3427.448325773123	99.11972181902767	2701.634712066049	-3457.678811424317	87.81664885135727	2615.302319714175	-3572.828459498056	61.88295641184545	2676.157491991602	-3516.740622713103	51.87595573248758	2762.467544918054	-3358.861888090828	73.67277413147262	2648.452008262358	-3492.080865759875	458.8361840880679	2338.476396269658	-3442.32372693368	601.3800370306732	2254.619072006322	-3577.536155816498	623.7539109386365	2339.668873239762	-3645.444782739936	421.3857687818925	2258.797520658929	-3657.657896474979	407.081087434695	2379.325723610155	-3549.629603941511	177.3173654392965	2315.339430711044	-3469.603058092229	247.3636211801167	2298.435450278534	-3548.146833528565	285.7688433619253	2246.728171200294	-3423.022122475936	108.7576998497356	2268.19615303577	-3451.369063102331	100.3498407475565	2352.69363377156	-3569.763394885283	59.48771492634436	2291.310627721991	-3517.574654652209	51.43705331601588	2208.719233839927	-3352.864389663676	78.77824145134575	2320.284588202417	-3438.140489781908	631.0261099209841	2706.052531010648	
261	25.925	-3512.632251670568	1247.892799497292	2472.607929874372	-3542.786446664721	1202.254463449101	2627.900726802718	-3587.477287204094	1083.681567535658	2483.046209996883	-3396.538879147245	775.0732105601129	2606.436685422059	-3407.422245101107	761.9580359939413	2336.222685199477	-3222.741354486856	850.0718227732094	2517.693267829875	-3236.119154120371	854.2002393097453	2425.067692817275	-3333.223182708633	759.2213643230563	2680.589935523768	-3326.252899296988	743.0393156562379	2259.320988669093	-3566.092650932188	639.4413839949312	2641.078046664813	-3458.261045952114	496.6938504958467	2658.397504961795	-3620.248617396401	455.1242533536421	2703.63103648302	-3634.36875547436	435.7722222999553	2576.432540900696	-3527.622696540533	289.6570367534735	2718.557989865059	-3540.32706794688	173.9550200647802	2669.795368416107	-3447.738516124144	212.9340447008798	2650.761310045692	-3427.380100236186	99.10001686190903	2701.684998468542	-3457.609631502046	87.90343129616878	2615.389126505069	-3572.800562987392	61.88750318693016	2676.187751529214	-3516.701115874289	51.81373185242539	2762.471734116279	-3358.804942929664	73.65151476458591	2648.502978634719	-3491.117205147952	461.1398201040918	2338.891436415414	-3442.452594519262	604.0470660460594	2254.861416087883	-3577.879325251499	625.4774412533637	2339.786953064636	-3644.28560767278	422.4347236212652	2259.299626509727	-3656.488077087477	407.9570427767794	2379.773972164	-3549.243409657435	177.7435429397661	2315.459140687828	-3468.983230796257	247.5536730201298	2298.631450890286	-3547.393534190528	286.2968904103959	2246.977425752516	-3422.885130715135	108.7607738758936	2268.225161751772	-3451.278134106064	100.4254501030409	2352.709485223844	-3569.720395042663	59.51354876142811	2291.31853037799	-3517.56780825006	51.44624006374241	2208.71881629888	-3352.813921883431	78.7153927545295	2320.26784545061	-3438.377137054391	633.6804630868256	2706.080752415642	
262	25.93	-3511.755205489882	1252.60983910918	2472.569724433209	-3541.876431845151	1207.165476846093	2627.924664829608	-3586.936854809779	1088.669873777324	2483.105643884847	-3397.146236327811	779.0158583709261	2606.585387486649	-3408.073028590977	765.9156841001486	2336.30117880412	-3223.280308892941	853.9209651121058	2517.763607168333	-3236.621612116829	858.0301299682741	2425.113943827139	-3333.988895151304	762.7639419732449	2680.652811546473	-3326.930358703635	746.4959802261344	2259.631941178954	-3566.411941014238	641.1213204493602	2641.190885913373	-3457.415042439355	499.1955969511359	2658.298422339055	-3619.081401355589	456.1287242623164	2703.463220922161	-3633.193881805723	436.7562036711645	2576.277595883681	-3526.837526297237	290.0730828924549	2718.528312967637	-3539.949985506916	174.3352775968057	2669.806387988545	-3447.243673912549	213.0092711843822	2650.779026800555	-3427.310495084237	99.07419760759686	2701.736812994763	-3457.534302557086	87.99256975052937	2615.483910552696	-3572.773288973142	61.89504251117504	2676.219289557996	-3516.663253589605	51.75031704651627	2762.476891092098	-3358.746479467905	73.62981779550768	2648.555534306542	-3490.130259675777	463.4670721006125	2339.299607205083	-3442.571125878138	606.738925836917	2255.106677984152	-3578.208784524436	627.2112699565999	2339.901295337515	-3643.0902169966	423.5034505781908	2259.789812209784	-3655.290403678913	408.8545742674079	2380.214529671206	-3548.843871908129	178.1804832244897	2315.574725337889	-3468.345923482503	247.7476256825098	2298.819396031276	-3546.616608236946	286.833395158883	2247.218493984297	-3422.744032063771	108.7660962485827	2268.255964269493	-3451.183460322895	100.5033978992561	2352.727636557174	-3569.675890040995	59.54159831590053	2291.326646861586	-3517.560366026919	51.45557616714797	2208.717683091676	-3352.762435761628	78.65253387496358	2320.250523544963	-3438.603072405921	636.3557583278816	2706.121901028821	
